<svg xmlns="http://www.w3.org/2000/svg" version="1.1" xmlns:xlink="http://www.w3.org/1999/xlink" xmlns:svgjs="http://svgjs.dev/svgjs" width="1500" height="935" viewBox="0 0 1500 935"><g transform="matrix(1,0,0,1,-0.9090909090909918,0.37854251012180384)"><svg viewBox="0 0 396 247" data-background-color="#cdcbec" preserveAspectRatio="xMidYMid meet" height="935" width="1500" xmlns="http://www.w3.org/2000/svg" xmlns:xlink="http://www.w3.org/1999/xlink"><g id="tight-bounds" transform="matrix(1,0,0,1,0.2400000000000091,-0.10000000000005116)"><svg viewBox="0 0 395.52 247.2" height="247.2" width="395.52"><rect width="395.52" height="247.20000000000016" fill="url(#5f8ae7e5-ec26-4a08-9c73-a1bb9d8ca356)" mask="url(#f4cc35ee-b37e-4cda-a873-4a83280ad96a)" data-fill-palette-color="tertiary"></rect><g><svg></svg></g><g><svg viewBox="0 0 395.52 247.2" height="247.2" width="395.52"><g transform="matrix(1,0,0,1,75.54432,101.44868605768332)"><svg viewBox="0 0 244.43135999999998 44.30262788463337" height="44.30262788463337" width="244.43135999999998"><g><svg viewBox="0 0 314.42725801518833 56.98922514947548" height="44.30262788463337" width="244.43135999999998"><g transform="matrix(1,0,0,1,0,1.0034282286328349)"><svg viewBox="0 0 244.43135999999998 54.98236869220981" height="54.98236869220981" width="244.43135999999998"><g id="textblocktransform"><svg viewBox="0 0 244.43135999999998 54.98236869220981" height="54.98236869220981" width="244.43135999999998" id="textblock"><g><svg viewBox="0 0 244.43135999999998 54.98236869220981" height="54.98236869220981" width="244.43135999999998"><g transform="matrix(1,0,0,1,0,0)"><svg width="244.43135999999998" viewBox="3.59 -38.35 172.66 38.84" height="54.98236869220981" data-palette-color="url(#a749d4d0-9573-49e5-9141-edee32d60b72)"></svg></g></svg></g></svg></g></svg></g><g transform="matrix(1,0,0,1,257.4113776713821,0)"><svg viewBox="0 0 57.0158803438062 56.98922514947548" height="56.98922514947548" width="57.0158803438062"><g><svg xmlns="http://www.w3.org/2000/svg" xmlns:xlink="http://www.w3.org/1999/xlink" version="1.1" x="0" y="0" viewBox="0.7607695154586737 0.7749999999999999 30.43923048454133 30.424999999999997" enable-background="new 0 0 32 32" xml:space="preserve" height="56.98922514947548" width="57.0158803438062" class="icon-icon-0" data-fill-palette-color="accent" id="icon-0"></svg></g></svg></g></svg></g></svg></g><g><path d="M245.816 0c68.262 0 123.6 55.338 123.6 123.6 0 68.262-55.338 123.6-123.6 123.6-58.918 0-108.208-41.225-120.599-96.403h1.977c12.353 54.105 60.773 94.476 118.622 94.476 67.198 0 121.673-54.475 121.672-121.673 0-67.198-54.475-121.673-121.672-121.673-57.849 0-106.268 40.371-118.622 94.476h-1.977c12.39-55.179 61.68-96.403 120.599-96.403z" fill="url(#5f8ae7e5-ec26-4a08-9c73-a1bb9d8ca356)" stroke="transparent" data-fill-palette-color="tertiary"></path></g></svg></g><defs></defs><mask id="6c736fa8-80e5-4acb-8c72-4c8d5a77b0e4"><g id="SvgjsG1389"><svg viewBox="0 0 395.52 247.2" height="247.2" width="395.52"><g><svg></svg></g><g><svg viewBox="0 0 395.52 247.2" height="247.2" width="395.52"><g transform="matrix(1,0,0,1,75.54432,101.44868605768332)"><svg viewBox="0 0 244.43135999999998 44.30262788463337" height="44.30262788463337" width="244.43135999999998"><g><svg viewBox="0 0 314.42725801518833 56.98922514947548" height="44.30262788463337" width="244.43135999999998"><g transform="matrix(1,0,0,1,0,1.0034282286328349)"><svg viewBox="0 0 244.43135999999998 54.98236869220981" height="54.98236869220981" width="244.43135999999998"><g id="SvgjsG1388"><svg viewBox="0 0 244.43135999999998 54.98236869220981" height="54.98236869220981" width="244.43135999999998" id="SvgjsSvg1387"><g><svg viewBox="0 0 244.43135999999998 54.98236869220981" height="54.98236869220981" width="244.43135999999998"><g transform="matrix(1,0,0,1,0,0)"><svg width="244.43135999999998" viewBox="3.59 -38.35 172.66 38.84" height="54.98236869220981" data-palette-color="url(#a749d4d0-9573-49e5-9141-edee32d60b72)"><path d="M8.91 0L4.47 0 4.47-26.42 8.91-26.42 8.91 0ZM6.69-32.47L6.69-32.47Q5.2-32.47 4.39-33.25 3.59-34.03 3.59-35.45L3.59-35.45Q3.59-36.82 4.39-37.59 5.2-38.35 6.69-38.35L6.69-38.35Q8.18-38.35 8.98-37.59 9.79-36.82 9.79-35.45L9.79-35.45Q9.79-34.03 8.98-33.25 8.18-32.47 6.69-32.47ZM24.14 0.49L24.14 0.49Q20.36 0.49 17.99-1.42 15.62-3.32 15.62-7.18L15.62-7.18Q15.62-8.94 16.25-10.3 16.87-11.67 18.14-12.61 19.41-13.55 21.41-14.04 23.41-14.53 26.14-14.53L26.14-14.53 32.1-14.53 32.1-17.58Q32.1-20.78 30.66-22.2 29.22-23.63 26.32-23.63L26.32-23.63Q24.44-23.63 22.08-23.03 19.72-22.44 17.84-21.14L17.84-21.14 16.55-24.51Q17.89-25.37 19.52-25.92 21.14-26.46 22.91-26.73 24.68-27 26.44-27L26.44-27Q29.42-27 31.69-26.05 33.96-25.1 35.24-22.95 36.52-20.8 36.52-17.21L36.52-17.21 36.52 0 32.81 0 32.49-3.25Q31.44-2 30.2-1.17 28.95-0.34 27.45 0.07 25.95 0.49 24.14 0.49ZM24.83-2.66L24.83-2.66Q27.17-2.66 29.03-3.64 30.88-4.61 32.1-6.18L32.1-6.18 32.1-11.72 26.95-11.72Q24.27-11.72 22.7-11.21 21.14-10.69 20.49-9.68 19.85-8.67 19.85-7.13L19.85-7.13Q19.85-4.64 21.3-3.65 22.75-2.66 24.83-2.66ZM48.65 0L44.21 0 44.21-26.42 47.92-26.42 48.38-21.24Q49.6-24.27 51.73-25.63 53.85-27 56.44-27L56.44-27Q58.47-27 60.03-26.25 61.59-25.49 62.64-24.1 63.69-22.71 64.18-20.78L64.18-20.78Q65.47-23.97 67.76-25.49 70.04-27 72.87-27L72.87-27Q76.95-27 79.12-24.45 81.29-21.9 81.29-17.02L81.29-17.02 81.29 0 76.87 0 76.87-15.72Q76.87-17.65 76.53-19.48 76.19-21.31 75.15-22.5 74.12-23.68 72.02-23.68L72.02-23.68Q70.38-23.68 68.76-22.62 67.13-21.56 66.06-19.52 64.99-17.48 64.99-14.55L64.99-14.55 64.99 0 60.54 0 60.54-14.89Q60.54-17.94 60.04-19.89 59.54-21.83 58.44-22.75 57.34-23.68 55.56-23.68L55.56-23.68Q53.58-23.68 52.14-22.62 50.7-21.56 49.82-19.73 48.95-17.9 48.65-15.58L48.65-15.58 48.65 0ZM111.78 0L90.01 0 90.01-35.55 94.74-35.55 94.74-3.56 111.93-3.56 111.78 0ZM120.89 0L116.45 0 116.45-26.42 120.89-26.42 120.89 0ZM118.67-32.47L118.67-32.47Q117.18-32.47 116.37-33.25 115.57-34.03 115.57-35.45L115.57-35.45Q115.57-36.82 116.37-37.59 117.18-38.35 118.67-38.35L118.67-38.35Q120.16-38.35 120.96-37.59 121.77-36.82 121.77-35.45L121.77-35.45Q121.77-34.03 120.96-33.25 120.16-32.47 118.67-32.47ZM140.42 0L135.9 0 126.33-26.42 130.9-26.42Q132.7-21.09 134.52-15.76 136.34-10.42 138.22-5.18L138.22-5.18Q140.03-10.5 141.81-15.81 143.59-21.12 145.37-26.42L145.37-26.42 149.84-26.42 140.42 0ZM166.49 0.49L166.49 0.49Q162.92 0.49 160.06-1.15 157.19-2.78 155.51-5.85 153.84-8.91 153.84-13.13L153.84-13.13Q153.84-17.53 155.48-20.63 157.11-23.73 159.87-25.37 162.63-27 165.95-27L165.95-27Q169.2-27 171.49-25.56 173.79-24.12 175.02-21.46 176.25-18.8 176.25-15.14L176.25-15.14Q176.25-14.77 176.19-14.14 176.13-13.5 176.08-12.99 176.03-12.48 176.03-12.43L176.03-12.43 158.38-12.43Q158.58-9.06 159.74-6.93 160.9-4.81 162.79-3.81 164.68-2.81 167.05-2.81L167.05-2.81Q169.32-2.81 170.93-3.45 172.54-4.1 174.18-5.03L174.18-5.03 174.5-5.03 175.52-2.12Q173.89-1 171.58-0.26 169.27 0.49 166.49 0.49ZM158.46-15.31L158.46-15.31 172.45-15.31Q172.4-19.29 170.87-21.5 169.35-23.71 166.17-23.71L166.17-23.71Q162.97-23.71 160.89-21.45 158.8-19.19 158.46-15.31Z" opacity="1" transform="matrix(1,0,0,1,0,0)" fill="white" class="wordmark-text-0" id="SvgjsPath1386"></path></svg></g></svg></g></svg></g></svg></g><g transform="matrix(1,0,0,1,257.4113776713821,0)"><svg viewBox="0 0 57.0158803438062 56.98922514947548" height="56.98922514947548" width="57.0158803438062"><g><svg xmlns="http://www.w3.org/2000/svg" xmlns:xlink="http://www.w3.org/1999/xlink" version="1.1" x="0" y="0" viewBox="0.7607695154586737 0.7749999999999999 30.43923048454133 30.424999999999997" enable-background="new 0 0 32 32" xml:space="preserve" height="56.98922514947548" width="57.0158803438062" class="icon-icon-0" data-fill-palette-color="accent" id="SvgjsSvg1385"><g fill="black"><g fill="black"><path fill="black" d="M1.5 31.2c-0.2 0-0.4-0.1-0.5-0.2-0.2-0.2-0.3-0.4-0.2-0.7l3.7-19.1c0.1-0.3 0.3-0.6 0.6-0.6l9.6-1.3c0.2 0 0.5 0 0.6 0.2l7.2 7.2c0.2 0.2 0.2 0.4 0.2 0.6l-1.3 9.6c0 0.3-0.3 0.6-0.6 0.6L1.6 31.2H1.5zM5.8 12.1L2.4 29.6l17.5-3.4 1.2-8.7-6.7-6.7L5.8 12.1z"></path></g><g fill="black"><rect x="5.2" y="19.8" transform="matrix(-0.7071 -0.7071 0.7071 -0.7071 -8.3465 48.7211)" fill="black" width="1.5" height="12.6"></rect></g><g fill="black"><path fill="black" d="M12 23.1c-0.8 0-1.6-0.3-2.2-0.9-0.6-0.6-0.9-1.3-0.9-2.2 0-0.8 0.3-1.6 0.9-2.2 1.2-1.2 3.2-1.2 4.3 0 1.2 1.2 1.2 3.1 0 4.3C13.6 22.8 12.8 23.1 12 23.1zM12 18.4c-0.4 0-0.8 0.2-1.1 0.5s-0.5 0.7-0.5 1.1 0.2 0.8 0.5 1.1c0.6 0.6 1.6 0.6 2.2 0 0.6-0.6 0.6-1.6 0-2.2C12.8 18.6 12.4 18.4 12 18.4z"></path></g><g fill="black"><path fill="black" d="M23.8 18.7c-0.9 0-1.8-0.4-2.4-1l-7.1-7.1c-1.3-1.3-1.3-3.5 0-4.8L19.1 1c0.3-0.3 0.8-0.3 1.1 0L31 11.8c0.1 0.1 0.2 0.3 0.2 0.5s-0.1 0.4-0.2 0.5l-4.9 4.9C25.5 18.4 24.7 18.7 23.8 18.7zM19.7 2.6l-4.3 4.3c-0.7 0.7-0.7 2 0 2.7l7.1 7.1c0.7 0.7 2 0.7 2.7 0l4.3-4.3L19.7 2.6z"></path></g></g></svg></g></svg></g></svg></g></svg></g><g><path d="M245.816 0c68.262 0 123.6 55.338 123.6 123.6 0 68.262-55.338 123.6-123.6 123.6-58.918 0-108.208-41.225-120.599-96.403h1.977c12.353 54.105 60.773 94.476 118.622 94.476 67.198 0 121.673-54.475 121.672-121.673 0-67.198-54.475-121.673-121.672-121.673-57.849 0-106.268 40.371-118.622 94.476h-1.977c12.39-55.179 61.68-96.403 120.599-96.403z" fill="black" stroke="transparent"></path></g></svg></g><defs><mask></mask></defs></svg><rect width="395.52" height="247.2" fill="black" stroke="none" visibility="hidden"></rect></g></mask><linearGradient x1="0.054" x2="0.941" y1="0.5" y2="0.5" id="a749d4d0-9573-49e5-9141-edee32d60b72"><stop stop-color="#0f3054" offset="0"></stop><stop stop-color="#3b8dcb" offset="0.498"></stop><stop stop-color="#0f3054" offset="1"></stop></linearGradient><rect width="395.52" height="247.20000000000005" fill="url(#a749d4d0-9573-49e5-9141-edee32d60b72)" mask="url(#6c736fa8-80e5-4acb-8c72-4c8d5a77b0e4)" data-fill-palette-color="primary"></rect><mask id="c2bd5944-d999-4856-8134-6ab54b09b90a"><g id="SvgjsG1408"><svg viewBox="0 0 395.52 247.2" height="247.2" width="395.52"><g><svg></svg></g><g><svg viewBox="0 0 395.52 247.2" height="247.2" width="395.52"><g transform="matrix(1,0,0,1,75.54432,101.44868605768332)"><svg viewBox="0 0 244.43135999999998 44.30262788463337" height="44.30262788463337" width="244.43135999999998"><g><svg viewBox="0 0 314.42725801518833 56.98922514947548" height="44.30262788463337" width="244.43135999999998"><g transform="matrix(1,0,0,1,0,1.0034282286328349)"><svg viewBox="0 0 244.43135999999998 54.98236869220981" height="54.98236869220981" width="244.43135999999998"><g id="SvgjsG1407"><svg viewBox="0 0 244.43135999999998 54.98236869220981" height="54.98236869220981" width="244.43135999999998" id="SvgjsSvg1406"><g><svg viewBox="0 0 244.43135999999998 54.98236869220981" height="54.98236869220981" width="244.43135999999998"><g transform="matrix(1,0,0,1,0,0)"><svg width="244.43135999999998" viewBox="3.59 -38.35 172.66 38.84" height="54.98236869220981" data-palette-color="url(#a749d4d0-9573-49e5-9141-edee32d60b72)"></svg></g></svg></g></svg></g></svg></g><g transform="matrix(1,0,0,1,257.4113776713821,0)"><svg viewBox="0 0 57.0158803438062 56.98922514947548" height="56.98922514947548" width="57.0158803438062"><g><svg xmlns="http://www.w3.org/2000/svg" xmlns:xlink="http://www.w3.org/1999/xlink" version="1.1" x="0" y="0" viewBox="0.7607695154586737 0.7749999999999999 30.43923048454133 30.424999999999997" enable-background="new 0 0 32 32" xml:space="preserve" height="56.98922514947548" width="57.0158803438062" class="icon-icon-0" data-fill-palette-color="accent" id="SvgjsSvg1405"><g fill="white"><g fill="white"><path fill="white" d="M1.5 31.2c-0.2 0-0.4-0.1-0.5-0.2-0.2-0.2-0.3-0.4-0.2-0.7l3.7-19.1c0.1-0.3 0.3-0.6 0.6-0.6l9.6-1.3c0.2 0 0.5 0 0.6 0.2l7.2 7.2c0.2 0.2 0.2 0.4 0.2 0.6l-1.3 9.6c0 0.3-0.3 0.6-0.6 0.6L1.6 31.2H1.5zM5.8 12.1L2.4 29.6l17.5-3.4 1.2-8.7-6.7-6.7L5.8 12.1z"></path></g><g fill="white"><rect x="5.2" y="19.8" transform="matrix(-0.7071 -0.7071 0.7071 -0.7071 -8.3465 48.7211)" fill="white" width="1.5" height="12.6"></rect></g><g fill="white"><path fill="white" d="M12 23.1c-0.8 0-1.6-0.3-2.2-0.9-0.6-0.6-0.9-1.3-0.9-2.2 0-0.8 0.3-1.6 0.9-2.2 1.2-1.2 3.2-1.2 4.3 0 1.2 1.2 1.2 3.1 0 4.3C13.6 22.8 12.8 23.1 12 23.1zM12 18.4c-0.4 0-0.8 0.2-1.1 0.5s-0.5 0.7-0.5 1.1 0.2 0.8 0.5 1.1c0.6 0.6 1.6 0.6 2.2 0 0.6-0.6 0.6-1.6 0-2.2C12.8 18.6 12.4 18.4 12 18.4z"></path></g><g fill="white"><path fill="white" d="M23.8 18.7c-0.9 0-1.8-0.4-2.4-1l-7.1-7.1c-1.3-1.3-1.3-3.5 0-4.8L19.1 1c0.3-0.3 0.8-0.3 1.1 0L31 11.8c0.1 0.1 0.2 0.3 0.2 0.5s-0.1 0.4-0.2 0.5l-4.9 4.9C25.5 18.4 24.7 18.7 23.8 18.7zM19.7 2.6l-4.3 4.3c-0.7 0.7-0.7 2 0 2.7l7.1 7.1c0.7 0.7 2 0.7 2.7 0l4.3-4.3L19.7 2.6z"></path></g></g></svg></g></svg></g></svg></g></svg></g><g><path d="M245.816 0c68.262 0 123.6 55.338 123.6 123.6 0 68.262-55.338 123.6-123.6 123.6-58.918 0-108.208-41.225-120.599-96.403h1.977c12.353 54.105 60.773 94.476 118.622 94.476 67.198 0 121.673-54.475 121.672-121.673 0-67.198-54.475-121.673-121.672-121.673-57.849 0-106.268 40.371-118.622 94.476h-1.977c12.39-55.179 61.68-96.403 120.599-96.403z" fill="black" stroke="transparent"></path></g></svg></g><defs><mask></mask></defs><mask><g id="SvgjsG1404"><svg viewBox="0 0 395.52 247.2" height="247.2" width="395.52"><g><svg></svg></g><g><svg viewBox="0 0 395.52 247.2" height="247.2" width="395.52"><g transform="matrix(1,0,0,1,75.54432,101.44868605768332)"><svg viewBox="0 0 244.43135999999998 44.30262788463337" height="44.30262788463337" width="244.43135999999998"><g><svg viewBox="0 0 314.42725801518833 56.98922514947548" height="44.30262788463337" width="244.43135999999998"><g transform="matrix(1,0,0,1,0,1.0034282286328349)"><svg viewBox="0 0 244.43135999999998 54.98236869220981" height="54.98236869220981" width="244.43135999999998"><g id="SvgjsG1403"><svg viewBox="0 0 244.43135999999998 54.98236869220981" height="54.98236869220981" width="244.43135999999998" id="SvgjsSvg1402"><g><svg viewBox="0 0 244.43135999999998 54.98236869220981" height="54.98236869220981" width="244.43135999999998"><g transform="matrix(1,0,0,1,0,0)"><svg width="244.43135999999998" viewBox="3.59 -38.35 172.66 38.84" height="54.98236869220981" data-palette-color="url(#a749d4d0-9573-49e5-9141-edee32d60b72)"><path d="M8.91 0L4.47 0 4.47-26.42 8.91-26.42 8.91 0ZM6.69-32.47L6.69-32.47Q5.2-32.47 4.39-33.25 3.59-34.03 3.59-35.45L3.59-35.45Q3.59-36.82 4.39-37.59 5.2-38.35 6.69-38.35L6.69-38.35Q8.18-38.35 8.98-37.59 9.79-36.82 9.79-35.45L9.79-35.45Q9.79-34.03 8.98-33.25 8.18-32.47 6.69-32.47ZM24.14 0.49L24.14 0.49Q20.36 0.49 17.99-1.42 15.62-3.32 15.62-7.18L15.62-7.18Q15.62-8.94 16.25-10.3 16.87-11.67 18.14-12.61 19.41-13.55 21.41-14.04 23.41-14.53 26.14-14.53L26.14-14.53 32.1-14.53 32.1-17.58Q32.1-20.78 30.66-22.2 29.22-23.63 26.32-23.63L26.32-23.63Q24.44-23.63 22.08-23.03 19.72-22.44 17.84-21.14L17.84-21.14 16.55-24.51Q17.89-25.37 19.52-25.92 21.14-26.46 22.91-26.73 24.68-27 26.44-27L26.44-27Q29.42-27 31.69-26.05 33.96-25.1 35.24-22.95 36.52-20.8 36.52-17.21L36.52-17.21 36.52 0 32.81 0 32.49-3.25Q31.44-2 30.2-1.17 28.95-0.34 27.45 0.07 25.95 0.49 24.14 0.49ZM24.83-2.66L24.83-2.66Q27.17-2.66 29.03-3.64 30.88-4.61 32.1-6.18L32.1-6.18 32.1-11.72 26.95-11.72Q24.27-11.72 22.7-11.21 21.14-10.69 20.49-9.68 19.85-8.67 19.85-7.13L19.85-7.13Q19.85-4.64 21.3-3.65 22.75-2.66 24.83-2.66ZM48.65 0L44.21 0 44.21-26.42 47.92-26.42 48.38-21.24Q49.6-24.27 51.73-25.63 53.85-27 56.44-27L56.44-27Q58.47-27 60.03-26.25 61.59-25.49 62.64-24.1 63.69-22.71 64.18-20.78L64.18-20.78Q65.47-23.97 67.76-25.49 70.04-27 72.87-27L72.87-27Q76.95-27 79.12-24.45 81.29-21.9 81.29-17.02L81.29-17.02 81.29 0 76.87 0 76.87-15.72Q76.87-17.65 76.53-19.48 76.19-21.31 75.15-22.5 74.12-23.68 72.02-23.68L72.02-23.68Q70.38-23.68 68.76-22.62 67.13-21.56 66.06-19.52 64.99-17.48 64.99-14.55L64.99-14.55 64.99 0 60.54 0 60.54-14.89Q60.54-17.94 60.04-19.89 59.54-21.83 58.44-22.75 57.34-23.68 55.56-23.68L55.56-23.68Q53.58-23.68 52.14-22.62 50.7-21.56 49.82-19.73 48.95-17.9 48.65-15.58L48.65-15.58 48.65 0ZM111.78 0L90.01 0 90.01-35.55 94.74-35.55 94.74-3.56 111.93-3.56 111.78 0ZM120.89 0L116.45 0 116.45-26.42 120.89-26.42 120.89 0ZM118.67-32.47L118.67-32.47Q117.18-32.47 116.37-33.25 115.57-34.03 115.57-35.45L115.57-35.45Q115.57-36.82 116.37-37.59 117.18-38.35 118.67-38.35L118.67-38.35Q120.16-38.35 120.96-37.59 121.77-36.82 121.77-35.45L121.77-35.45Q121.77-34.03 120.96-33.25 120.16-32.47 118.67-32.47ZM140.42 0L135.9 0 126.33-26.42 130.9-26.42Q132.7-21.09 134.52-15.76 136.34-10.42 138.22-5.18L138.22-5.18Q140.03-10.5 141.81-15.81 143.59-21.12 145.37-26.42L145.37-26.42 149.84-26.42 140.42 0ZM166.49 0.49L166.49 0.49Q162.92 0.49 160.06-1.15 157.19-2.78 155.51-5.85 153.84-8.91 153.84-13.13L153.84-13.13Q153.84-17.53 155.48-20.63 157.11-23.73 159.87-25.37 162.63-27 165.95-27L165.95-27Q169.2-27 171.49-25.56 173.79-24.12 175.02-21.46 176.25-18.8 176.25-15.14L176.25-15.14Q176.25-14.77 176.19-14.14 176.13-13.5 176.08-12.99 176.03-12.48 176.03-12.43L176.03-12.43 158.38-12.43Q158.58-9.06 159.74-6.93 160.9-4.81 162.79-3.81 164.68-2.81 167.05-2.81L167.05-2.81Q169.32-2.81 170.93-3.45 172.54-4.1 174.18-5.03L174.18-5.03 174.5-5.03 175.52-2.12Q173.89-1 171.58-0.26 169.27 0.49 166.49 0.49ZM158.46-15.31L158.46-15.31 172.45-15.31Q172.4-19.29 170.87-21.5 169.35-23.71 166.17-23.71L166.17-23.71Q162.97-23.71 160.89-21.45 158.8-19.19 158.46-15.31Z" opacity="1" transform="matrix(1,0,0,1,0,0)" fill="black" class="wordmark-text-0" id="SvgjsPath1401"></path></svg></g></svg></g></svg></g></svg></g><g transform="matrix(1,0,0,1,257.4113776713821,0)"><svg viewBox="0 0 57.0158803438062 56.98922514947548" height="56.98922514947548" width="57.0158803438062"><g><svg xmlns="http://www.w3.org/2000/svg" xmlns:xlink="http://www.w3.org/1999/xlink" version="1.1" x="0" y="0" viewBox="0.7607695154586737 0.7749999999999999 30.43923048454133 30.424999999999997" enable-background="new 0 0 32 32" xml:space="preserve" height="56.98922514947548" width="57.0158803438062" class="icon-icon-0" data-fill-palette-color="accent" id="SvgjsSvg1400"><g fill="black"><g fill="black"><path fill="black" d="M1.5 31.2c-0.2 0-0.4-0.1-0.5-0.2-0.2-0.2-0.3-0.4-0.2-0.7l3.7-19.1c0.1-0.3 0.3-0.6 0.6-0.6l9.6-1.3c0.2 0 0.5 0 0.6 0.2l7.2 7.2c0.2 0.2 0.2 0.4 0.2 0.6l-1.3 9.6c0 0.3-0.3 0.6-0.6 0.6L1.6 31.2H1.5zM5.8 12.1L2.4 29.6l17.5-3.4 1.2-8.7-6.7-6.7L5.8 12.1z"></path></g><g fill="black"><rect x="5.2" y="19.8" transform="matrix(-0.7071 -0.7071 0.7071 -0.7071 -8.3465 48.7211)" fill="black" width="1.5" height="12.6"></rect></g><g fill="black"><path fill="black" d="M12 23.1c-0.8 0-1.6-0.3-2.2-0.9-0.6-0.6-0.9-1.3-0.9-2.2 0-0.8 0.3-1.6 0.9-2.2 1.2-1.2 3.2-1.2 4.3 0 1.2 1.2 1.2 3.1 0 4.3C13.6 22.8 12.8 23.1 12 23.1zM12 18.4c-0.4 0-0.8 0.2-1.1 0.5s-0.5 0.7-0.5 1.1 0.2 0.8 0.5 1.1c0.6 0.6 1.6 0.6 2.2 0 0.6-0.6 0.6-1.6 0-2.2C12.8 18.6 12.4 18.4 12 18.4z"></path></g><g fill="black"><path fill="black" d="M23.8 18.7c-0.9 0-1.8-0.4-2.4-1l-7.1-7.1c-1.3-1.3-1.3-3.5 0-4.8L19.1 1c0.3-0.3 0.8-0.3 1.1 0L31 11.8c0.1 0.1 0.2 0.3 0.2 0.5s-0.1 0.4-0.2 0.5l-4.9 4.9C25.5 18.4 24.7 18.7 23.8 18.7zM19.7 2.6l-4.3 4.3c-0.7 0.7-0.7 2 0 2.7l7.1 7.1c0.7 0.7 2 0.7 2.7 0l4.3-4.3L19.7 2.6z"></path></g></g></svg></g></svg></g></svg></g></svg></g><g><path d="M245.816 0c68.262 0 123.6 55.338 123.6 123.6 0 68.262-55.338 123.6-123.6 123.6-58.918 0-108.208-41.225-120.599-96.403h1.977c12.353 54.105 60.773 94.476 118.622 94.476 67.198 0 121.673-54.475 121.672-121.673 0-67.198-54.475-121.673-121.672-121.673-57.849 0-106.268 40.371-118.622 94.476h-1.977c12.39-55.179 61.68-96.403 120.599-96.403z" fill="black" stroke="transparent"></path></g></svg></g><defs><mask></mask></defs></svg><rect width="395.52" height="247.2" fill="black" stroke="none" visibility="hidden"></rect></g></mask></svg><rect width="395.52" height="247.2" fill="black" stroke="none" visibility="hidden"></rect></g></mask><linearGradient x1="0.054" x2="0.941" y1="0.5" y2="0.5" id="bda1c6ed-38c5-4bab-9565-b186e17bbdcb"><stop stop-color="#0f3054" offset="0"></stop><stop stop-color="#3b8dcb" offset="0.498"></stop><stop stop-color="#0f3054" offset="1"></stop></linearGradient><rect width="395.52" height="247.2000000000001" fill="url(#bda1c6ed-38c5-4bab-9565-b186e17bbdcb)" mask="url(#c2bd5944-d999-4856-8134-6ab54b09b90a)" data-fill-palette-color="accent"></rect><mask id="f4cc35ee-b37e-4cda-a873-4a83280ad96a"><g id="SvgjsG1426"><svg viewBox="0 0 395.52 247.2" height="247.2" width="395.52"><g><svg></svg></g><g><svg viewBox="0 0 395.52 247.2" height="247.2" width="395.52"><g transform="matrix(1,0,0,1,75.54432,101.44868605768332)"><svg viewBox="0 0 244.43135999999998 44.30262788463337" height="44.30262788463337" width="244.43135999999998"><g><svg viewBox="0 0 314.42725801518833 56.98922514947548" height="44.30262788463337" width="244.43135999999998"><g transform="matrix(1,0,0,1,0,1.0034282286328349)"><svg viewBox="0 0 244.43135999999998 54.98236869220981" height="54.98236869220981" width="244.43135999999998"><g id="SvgjsG1425"><svg viewBox="0 0 244.43135999999998 54.98236869220981" height="54.98236869220981" width="244.43135999999998" id="SvgjsSvg1424"><g><svg viewBox="0 0 244.43135999999998 54.98236869220981" height="54.98236869220981" width="244.43135999999998"><g transform="matrix(1,0,0,1,0,0)"><svg width="244.43135999999998" viewBox="3.59 -38.35 172.66 38.84" height="54.98236869220981" data-palette-color="url(#a749d4d0-9573-49e5-9141-edee32d60b72)"></svg></g></svg></g></svg></g></svg></g><g transform="matrix(1,0,0,1,257.4113776713821,0)"><svg viewBox="0 0 57.0158803438062 56.98922514947548" height="56.98922514947548" width="57.0158803438062"><g><svg xmlns="http://www.w3.org/2000/svg" xmlns:xlink="http://www.w3.org/1999/xlink" version="1.1" x="0" y="0" viewBox="0.7607695154586737 0.7749999999999999 30.43923048454133 30.424999999999997" enable-background="new 0 0 32 32" xml:space="preserve" height="56.98922514947548" width="57.0158803438062" class="icon-icon-0" data-fill-palette-color="accent" id="SvgjsSvg1423"></svg></g></svg></g></svg></g></svg></g><g><path d="M245.816 0c68.262 0 123.6 55.338 123.6 123.6 0 68.262-55.338 123.6-123.6 123.6-58.918 0-108.208-41.225-120.599-96.403h1.977c12.353 54.105 60.773 94.476 118.622 94.476 67.198 0 121.673-54.475 121.672-121.673 0-67.198-54.475-121.673-121.672-121.673-57.849 0-106.268 40.371-118.622 94.476h-1.977c12.39-55.179 61.68-96.403 120.599-96.403z" fill="white" stroke="transparent"></path></g></svg></g><defs><mask></mask></defs><mask><g id="SvgjsG1422"><svg viewBox="0 0 395.52 247.2" height="247.2" width="395.52"><g><svg></svg></g><g><svg viewBox="0 0 395.52 247.2" height="247.2" width="395.52"><g transform="matrix(1,0,0,1,75.54432,101.44868605768332)"><svg viewBox="0 0 244.43135999999998 44.30262788463337" height="44.30262788463337" width="244.43135999999998"><g><svg viewBox="0 0 314.42725801518833 56.98922514947548" height="44.30262788463337" width="244.43135999999998"><g transform="matrix(1,0,0,1,0,1.0034282286328349)"><svg viewBox="0 0 244.43135999999998 54.98236869220981" height="54.98236869220981" width="244.43135999999998"><g id="SvgjsG1421"><svg viewBox="0 0 244.43135999999998 54.98236869220981" height="54.98236869220981" width="244.43135999999998" id="SvgjsSvg1420"><g><svg viewBox="0 0 244.43135999999998 54.98236869220981" height="54.98236869220981" width="244.43135999999998"><g transform="matrix(1,0,0,1,0,0)"><svg width="244.43135999999998" viewBox="3.59 -38.35 172.66 38.84" height="54.98236869220981" data-palette-color="url(#a749d4d0-9573-49e5-9141-edee32d60b72)"><path d="M8.91 0L4.47 0 4.47-26.42 8.91-26.42 8.91 0ZM6.69-32.47L6.69-32.47Q5.2-32.47 4.39-33.25 3.59-34.03 3.59-35.45L3.59-35.45Q3.59-36.82 4.39-37.59 5.2-38.35 6.69-38.35L6.69-38.35Q8.18-38.35 8.98-37.59 9.79-36.82 9.79-35.45L9.79-35.45Q9.79-34.03 8.98-33.25 8.18-32.47 6.69-32.47ZM24.14 0.49L24.14 0.49Q20.36 0.49 17.99-1.42 15.62-3.32 15.62-7.18L15.62-7.18Q15.62-8.94 16.25-10.3 16.87-11.67 18.14-12.61 19.41-13.55 21.41-14.04 23.41-14.53 26.14-14.53L26.14-14.53 32.1-14.53 32.1-17.58Q32.1-20.78 30.66-22.2 29.22-23.63 26.32-23.63L26.32-23.63Q24.44-23.63 22.08-23.03 19.72-22.44 17.84-21.14L17.84-21.14 16.55-24.51Q17.89-25.37 19.52-25.92 21.14-26.46 22.91-26.73 24.68-27 26.44-27L26.44-27Q29.42-27 31.69-26.05 33.96-25.1 35.24-22.95 36.52-20.8 36.52-17.21L36.52-17.21 36.52 0 32.81 0 32.49-3.25Q31.44-2 30.2-1.17 28.95-0.34 27.45 0.07 25.95 0.49 24.14 0.49ZM24.83-2.66L24.83-2.66Q27.17-2.66 29.03-3.64 30.88-4.61 32.1-6.18L32.1-6.18 32.1-11.72 26.95-11.72Q24.27-11.72 22.7-11.21 21.14-10.69 20.49-9.68 19.85-8.67 19.85-7.13L19.85-7.13Q19.85-4.64 21.3-3.65 22.75-2.66 24.83-2.66ZM48.65 0L44.21 0 44.21-26.42 47.92-26.42 48.38-21.24Q49.6-24.27 51.73-25.63 53.85-27 56.44-27L56.44-27Q58.47-27 60.03-26.25 61.59-25.49 62.64-24.1 63.69-22.71 64.18-20.78L64.18-20.78Q65.47-23.97 67.76-25.49 70.04-27 72.87-27L72.87-27Q76.95-27 79.12-24.45 81.29-21.9 81.29-17.02L81.29-17.02 81.29 0 76.87 0 76.87-15.72Q76.87-17.65 76.53-19.48 76.19-21.31 75.15-22.5 74.12-23.68 72.02-23.68L72.02-23.68Q70.38-23.68 68.76-22.62 67.13-21.56 66.06-19.52 64.99-17.48 64.99-14.55L64.99-14.55 64.99 0 60.54 0 60.54-14.89Q60.54-17.94 60.04-19.89 59.54-21.83 58.44-22.75 57.34-23.68 55.56-23.68L55.56-23.68Q53.58-23.68 52.14-22.62 50.7-21.56 49.82-19.73 48.95-17.9 48.65-15.58L48.65-15.58 48.65 0ZM111.78 0L90.01 0 90.01-35.55 94.74-35.55 94.74-3.56 111.93-3.56 111.78 0ZM120.89 0L116.45 0 116.45-26.42 120.89-26.42 120.89 0ZM118.67-32.47L118.67-32.47Q117.18-32.47 116.37-33.25 115.57-34.03 115.57-35.45L115.57-35.45Q115.57-36.82 116.37-37.59 117.18-38.35 118.67-38.35L118.67-38.35Q120.16-38.35 120.96-37.59 121.77-36.82 121.77-35.45L121.77-35.45Q121.77-34.03 120.96-33.25 120.16-32.47 118.67-32.47ZM140.42 0L135.9 0 126.33-26.42 130.9-26.42Q132.7-21.09 134.52-15.76 136.34-10.42 138.22-5.18L138.22-5.18Q140.03-10.5 141.81-15.81 143.59-21.12 145.37-26.42L145.37-26.42 149.84-26.42 140.42 0ZM166.49 0.49L166.49 0.49Q162.92 0.49 160.06-1.15 157.19-2.78 155.51-5.85 153.84-8.91 153.84-13.13L153.84-13.13Q153.84-17.53 155.48-20.63 157.11-23.73 159.87-25.37 162.63-27 165.95-27L165.95-27Q169.2-27 171.49-25.56 173.79-24.12 175.02-21.46 176.25-18.8 176.25-15.14L176.25-15.14Q176.25-14.77 176.19-14.14 176.13-13.5 176.08-12.99 176.03-12.48 176.03-12.43L176.03-12.43 158.38-12.43Q158.58-9.06 159.74-6.93 160.9-4.81 162.79-3.81 164.68-2.81 167.05-2.81L167.05-2.81Q169.32-2.81 170.93-3.45 172.54-4.1 174.18-5.03L174.18-5.03 174.5-5.03 175.52-2.12Q173.89-1 171.58-0.26 169.27 0.49 166.49 0.49ZM158.46-15.31L158.46-15.31 172.45-15.31Q172.4-19.29 170.87-21.5 169.35-23.71 166.17-23.71L166.17-23.71Q162.97-23.71 160.89-21.45 158.8-19.19 158.46-15.31Z" opacity="1" transform="matrix(1,0,0,1,0,0)" fill="black" class="wordmark-text-0" id="SvgjsPath1419"></path></svg></g></svg></g></svg></g></svg></g><g transform="matrix(1,0,0,1,257.4113776713821,0)"><svg viewBox="0 0 57.0158803438062 56.98922514947548" height="56.98922514947548" width="57.0158803438062"><g><svg xmlns="http://www.w3.org/2000/svg" xmlns:xlink="http://www.w3.org/1999/xlink" version="1.1" x="0" y="0" viewBox="0.7607695154586737 0.7749999999999999 30.43923048454133 30.424999999999997" enable-background="new 0 0 32 32" xml:space="preserve" height="56.98922514947548" width="57.0158803438062" class="icon-icon-0" data-fill-palette-color="accent" id="SvgjsSvg1418"><g fill="black"><g fill="black"><path fill="black" d="M1.5 31.2c-0.2 0-0.4-0.1-0.5-0.2-0.2-0.2-0.3-0.4-0.2-0.7l3.7-19.1c0.1-0.3 0.3-0.6 0.6-0.6l9.6-1.3c0.2 0 0.5 0 0.6 0.2l7.2 7.2c0.2 0.2 0.2 0.4 0.2 0.6l-1.3 9.6c0 0.3-0.3 0.6-0.6 0.6L1.6 31.2H1.5zM5.8 12.1L2.4 29.6l17.5-3.4 1.2-8.7-6.7-6.7L5.8 12.1z"></path></g><g fill="black"><rect x="5.2" y="19.8" transform="matrix(-0.7071 -0.7071 0.7071 -0.7071 -8.3465 48.7211)" fill="black" width="1.5" height="12.6"></rect></g><g fill="black"><path fill="black" d="M12 23.1c-0.8 0-1.6-0.3-2.2-0.9-0.6-0.6-0.9-1.3-0.9-2.2 0-0.8 0.3-1.6 0.9-2.2 1.2-1.2 3.2-1.2 4.3 0 1.2 1.2 1.2 3.1 0 4.3C13.6 22.8 12.8 23.1 12 23.1zM12 18.4c-0.4 0-0.8 0.2-1.1 0.5s-0.5 0.7-0.5 1.1 0.2 0.8 0.5 1.1c0.6 0.6 1.6 0.6 2.2 0 0.6-0.6 0.6-1.6 0-2.2C12.8 18.6 12.4 18.4 12 18.4z"></path></g><g fill="black"><path fill="black" d="M23.8 18.7c-0.9 0-1.8-0.4-2.4-1l-7.1-7.1c-1.3-1.3-1.3-3.5 0-4.8L19.1 1c0.3-0.3 0.8-0.3 1.1 0L31 11.8c0.1 0.1 0.2 0.3 0.2 0.5s-0.1 0.4-0.2 0.5l-4.9 4.9C25.5 18.4 24.7 18.7 23.8 18.7zM19.7 2.6l-4.3 4.3c-0.7 0.7-0.7 2 0 2.7l7.1 7.1c0.7 0.7 2 0.7 2.7 0l4.3-4.3L19.7 2.6z"></path></g></g></svg></g></svg></g></svg></g></svg></g><g><path d="M245.816 0c68.262 0 123.6 55.338 123.6 123.6 0 68.262-55.338 123.6-123.6 123.6-58.918 0-108.208-41.225-120.599-96.403h1.977c12.353 54.105 60.773 94.476 118.622 94.476 67.198 0 121.673-54.475 121.672-121.673 0-67.198-54.475-121.673-121.672-121.673-57.849 0-106.268 40.371-118.622 94.476h-1.977c12.39-55.179 61.68-96.403 120.599-96.403z" fill="black" stroke="transparent"></path></g></svg></g><defs><mask></mask></defs></svg><rect width="395.52" height="247.2" fill="black" stroke="none" visibility="hidden"></rect></g></mask><mask><g id="SvgjsG1417"><svg viewBox="0 0 395.52 247.2" height="247.2" width="395.52"><g><svg></svg></g><g><svg viewBox="0 0 395.52 247.2" height="247.2" width="395.52"><g transform="matrix(1,0,0,1,75.54432,101.44868605768332)"><svg viewBox="0 0 244.43135999999998 44.30262788463337" height="44.30262788463337" width="244.43135999999998"><g><svg viewBox="0 0 314.42725801518833 56.98922514947548" height="44.30262788463337" width="244.43135999999998"><g transform="matrix(1,0,0,1,0,1.0034282286328349)"><svg viewBox="0 0 244.43135999999998 54.98236869220981" height="54.98236869220981" width="244.43135999999998"><g id="SvgjsG1416"><svg viewBox="0 0 244.43135999999998 54.98236869220981" height="54.98236869220981" width="244.43135999999998" id="SvgjsSvg1415"><g><svg viewBox="0 0 244.43135999999998 54.98236869220981" height="54.98236869220981" width="244.43135999999998"><g transform="matrix(1,0,0,1,0,0)"><svg width="244.43135999999998" viewBox="3.59 -38.35 172.66 38.84" height="54.98236869220981" data-palette-color="url(#a749d4d0-9573-49e5-9141-edee32d60b72)"></svg></g></svg></g></svg></g></svg></g><g transform="matrix(1,0,0,1,257.4113776713821,0)"><svg viewBox="0 0 57.0158803438062 56.98922514947548" height="56.98922514947548" width="57.0158803438062"><g><svg xmlns="http://www.w3.org/2000/svg" xmlns:xlink="http://www.w3.org/1999/xlink" version="1.1" x="0" y="0" viewBox="0.7607695154586737 0.7749999999999999 30.43923048454133 30.424999999999997" enable-background="new 0 0 32 32" xml:space="preserve" height="56.98922514947548" width="57.0158803438062" class="icon-icon-0" data-fill-palette-color="accent" id="SvgjsSvg1414"><g fill="black"><g fill="black"><path fill="black" d="M1.5 31.2c-0.2 0-0.4-0.1-0.5-0.2-0.2-0.2-0.3-0.4-0.2-0.7l3.7-19.1c0.1-0.3 0.3-0.6 0.6-0.6l9.6-1.3c0.2 0 0.5 0 0.6 0.2l7.2 7.2c0.2 0.2 0.2 0.4 0.2 0.6l-1.3 9.6c0 0.3-0.3 0.6-0.6 0.6L1.6 31.2H1.5zM5.8 12.1L2.4 29.6l17.5-3.4 1.2-8.7-6.7-6.7L5.8 12.1z"></path></g><g fill="black"><rect x="5.2" y="19.8" transform="matrix(-0.7071 -0.7071 0.7071 -0.7071 -8.3465 48.7211)" fill="black" width="1.5" height="12.6"></rect></g><g fill="black"><path fill="black" d="M12 23.1c-0.8 0-1.6-0.3-2.2-0.9-0.6-0.6-0.9-1.3-0.9-2.2 0-0.8 0.3-1.6 0.9-2.2 1.2-1.2 3.2-1.2 4.3 0 1.2 1.2 1.2 3.1 0 4.3C13.6 22.8 12.8 23.1 12 23.1zM12 18.4c-0.4 0-0.8 0.2-1.1 0.5s-0.5 0.7-0.5 1.1 0.2 0.8 0.5 1.1c0.6 0.6 1.6 0.6 2.2 0 0.6-0.6 0.6-1.6 0-2.2C12.8 18.6 12.4 18.4 12 18.4z"></path></g><g fill="black"><path fill="black" d="M23.8 18.7c-0.9 0-1.8-0.4-2.4-1l-7.1-7.1c-1.3-1.3-1.3-3.5 0-4.8L19.1 1c0.3-0.3 0.8-0.3 1.1 0L31 11.8c0.1 0.1 0.2 0.3 0.2 0.5s-0.1 0.4-0.2 0.5l-4.9 4.9C25.5 18.4 24.7 18.7 23.8 18.7zM19.7 2.6l-4.3 4.3c-0.7 0.7-0.7 2 0 2.7l7.1 7.1c0.7 0.7 2 0.7 2.7 0l4.3-4.3L19.7 2.6z"></path></g></g></svg></g></svg></g></svg></g></svg></g><g><path d="M245.816 0c68.262 0 123.6 55.338 123.6 123.6 0 68.262-55.338 123.6-123.6 123.6-58.918 0-108.208-41.225-120.599-96.403h1.977c12.353 54.105 60.773 94.476 118.622 94.476 67.198 0 121.673-54.475 121.672-121.673 0-67.198-54.475-121.673-121.672-121.673-57.849 0-106.268 40.371-118.622 94.476h-1.977c12.39-55.179 61.68-96.403 120.599-96.403z" fill="black" stroke="transparent"></path></g></svg></g><defs><mask></mask></defs><mask><g id="SvgjsG1413"><svg viewBox="0 0 395.52 247.2" height="247.2" width="395.52"><g><svg></svg></g><g><svg viewBox="0 0 395.52 247.2" height="247.2" width="395.52"><g transform="matrix(1,0,0,1,75.54432,101.44868605768332)"><svg viewBox="0 0 244.43135999999998 44.30262788463337" height="44.30262788463337" width="244.43135999999998"><g><svg viewBox="0 0 314.42725801518833 56.98922514947548" height="44.30262788463337" width="244.43135999999998"><g transform="matrix(1,0,0,1,0,1.0034282286328349)"><svg viewBox="0 0 244.43135999999998 54.98236869220981" height="54.98236869220981" width="244.43135999999998"><g id="SvgjsG1412"><svg viewBox="0 0 244.43135999999998 54.98236869220981" height="54.98236869220981" width="244.43135999999998" id="SvgjsSvg1411"><g><svg viewBox="0 0 244.43135999999998 54.98236869220981" height="54.98236869220981" width="244.43135999999998"><g transform="matrix(1,0,0,1,0,0)"><svg width="244.43135999999998" viewBox="3.59 -38.35 172.66 38.84" height="54.98236869220981" data-palette-color="url(#a749d4d0-9573-49e5-9141-edee32d60b72)"><path d="M8.91 0L4.47 0 4.47-26.42 8.91-26.42 8.91 0ZM6.69-32.47L6.69-32.47Q5.2-32.47 4.39-33.25 3.59-34.03 3.59-35.45L3.59-35.45Q3.59-36.82 4.39-37.59 5.2-38.35 6.69-38.35L6.69-38.35Q8.18-38.35 8.98-37.59 9.79-36.82 9.79-35.45L9.79-35.45Q9.79-34.03 8.98-33.25 8.18-32.47 6.69-32.47ZM24.14 0.49L24.14 0.49Q20.36 0.49 17.99-1.42 15.62-3.32 15.62-7.18L15.62-7.18Q15.62-8.94 16.25-10.3 16.87-11.67 18.14-12.61 19.41-13.55 21.41-14.04 23.41-14.53 26.14-14.53L26.14-14.53 32.1-14.53 32.1-17.58Q32.1-20.78 30.66-22.2 29.22-23.63 26.32-23.63L26.32-23.63Q24.44-23.63 22.08-23.03 19.72-22.44 17.84-21.14L17.84-21.14 16.55-24.51Q17.89-25.37 19.52-25.92 21.14-26.46 22.91-26.73 24.68-27 26.44-27L26.44-27Q29.42-27 31.69-26.05 33.96-25.1 35.24-22.95 36.52-20.8 36.52-17.21L36.52-17.21 36.52 0 32.81 0 32.49-3.25Q31.44-2 30.2-1.17 28.95-0.34 27.45 0.07 25.95 0.49 24.14 0.49ZM24.83-2.66L24.83-2.66Q27.17-2.66 29.03-3.64 30.88-4.61 32.1-6.18L32.1-6.18 32.1-11.72 26.95-11.72Q24.27-11.72 22.7-11.21 21.14-10.69 20.49-9.68 19.85-8.67 19.85-7.13L19.85-7.13Q19.85-4.64 21.3-3.65 22.75-2.66 24.83-2.66ZM48.65 0L44.21 0 44.21-26.42 47.92-26.42 48.38-21.24Q49.6-24.27 51.73-25.63 53.85-27 56.44-27L56.44-27Q58.47-27 60.03-26.25 61.59-25.49 62.64-24.1 63.69-22.71 64.18-20.78L64.18-20.78Q65.47-23.97 67.76-25.49 70.04-27 72.87-27L72.87-27Q76.95-27 79.12-24.45 81.29-21.9 81.29-17.02L81.29-17.02 81.29 0 76.87 0 76.87-15.72Q76.87-17.65 76.53-19.48 76.19-21.31 75.15-22.5 74.12-23.68 72.02-23.68L72.02-23.68Q70.38-23.68 68.76-22.62 67.13-21.56 66.06-19.52 64.99-17.48 64.99-14.55L64.99-14.55 64.99 0 60.54 0 60.54-14.89Q60.54-17.94 60.04-19.89 59.54-21.83 58.44-22.75 57.34-23.68 55.56-23.68L55.56-23.68Q53.58-23.68 52.14-22.62 50.7-21.56 49.82-19.73 48.95-17.9 48.65-15.58L48.65-15.58 48.65 0ZM111.78 0L90.01 0 90.01-35.55 94.74-35.55 94.74-3.56 111.93-3.56 111.78 0ZM120.89 0L116.45 0 116.45-26.42 120.89-26.42 120.89 0ZM118.67-32.47L118.67-32.47Q117.18-32.47 116.37-33.25 115.57-34.03 115.57-35.45L115.57-35.45Q115.57-36.82 116.37-37.59 117.18-38.35 118.67-38.35L118.67-38.35Q120.16-38.35 120.96-37.59 121.77-36.82 121.77-35.45L121.77-35.45Q121.77-34.03 120.96-33.25 120.16-32.47 118.67-32.47ZM140.42 0L135.9 0 126.33-26.42 130.9-26.42Q132.7-21.09 134.52-15.76 136.34-10.42 138.22-5.18L138.22-5.18Q140.03-10.5 141.81-15.81 143.59-21.12 145.37-26.42L145.37-26.42 149.84-26.42 140.42 0ZM166.49 0.49L166.49 0.49Q162.92 0.49 160.06-1.15 157.19-2.78 155.51-5.85 153.84-8.91 153.84-13.13L153.84-13.13Q153.84-17.53 155.48-20.63 157.11-23.73 159.87-25.37 162.63-27 165.95-27L165.95-27Q169.2-27 171.49-25.56 173.79-24.12 175.02-21.46 176.25-18.8 176.25-15.14L176.25-15.14Q176.25-14.77 176.19-14.14 176.13-13.5 176.08-12.99 176.03-12.48 176.03-12.43L176.03-12.43 158.38-12.43Q158.58-9.06 159.74-6.93 160.9-4.81 162.79-3.81 164.68-2.81 167.05-2.81L167.05-2.81Q169.32-2.81 170.93-3.45 172.54-4.1 174.18-5.03L174.18-5.03 174.5-5.03 175.52-2.12Q173.89-1 171.58-0.26 169.27 0.49 166.49 0.49ZM158.46-15.31L158.46-15.31 172.45-15.31Q172.4-19.29 170.87-21.5 169.35-23.71 166.17-23.71L166.17-23.71Q162.97-23.71 160.89-21.45 158.8-19.19 158.46-15.31Z" opacity="1" transform="matrix(1,0,0,1,0,0)" fill="black" class="wordmark-text-0" id="SvgjsPath1410"></path></svg></g></svg></g></svg></g></svg></g><g transform="matrix(1,0,0,1,257.4113776713821,0)"><svg viewBox="0 0 57.0158803438062 56.98922514947548" height="56.98922514947548" width="57.0158803438062"><g><svg xmlns="http://www.w3.org/2000/svg" xmlns:xlink="http://www.w3.org/1999/xlink" version="1.1" x="0" y="0" viewBox="0.7607695154586737 0.7749999999999999 30.43923048454133 30.424999999999997" enable-background="new 0 0 32 32" xml:space="preserve" height="56.98922514947548" width="57.0158803438062" class="icon-icon-0" data-fill-palette-color="accent" id="SvgjsSvg1409"><g fill="black"><g fill="black"><path fill="black" d="M1.5 31.2c-0.2 0-0.4-0.1-0.5-0.2-0.2-0.2-0.3-0.4-0.2-0.7l3.7-19.1c0.1-0.3 0.3-0.6 0.6-0.6l9.6-1.3c0.2 0 0.5 0 0.6 0.2l7.2 7.2c0.2 0.2 0.2 0.4 0.2 0.6l-1.3 9.6c0 0.3-0.3 0.6-0.6 0.6L1.6 31.2H1.5zM5.8 12.1L2.4 29.6l17.5-3.4 1.2-8.7-6.7-6.7L5.8 12.1z"></path></g><g fill="black"><rect x="5.2" y="19.8" transform="matrix(-0.7071 -0.7071 0.7071 -0.7071 -8.3465 48.7211)" fill="black" width="1.5" height="12.6"></rect></g><g fill="black"><path fill="black" d="M12 23.1c-0.8 0-1.6-0.3-2.2-0.9-0.6-0.6-0.9-1.3-0.9-2.2 0-0.8 0.3-1.6 0.9-2.2 1.2-1.2 3.2-1.2 4.3 0 1.2 1.2 1.2 3.1 0 4.3C13.6 22.8 12.8 23.1 12 23.1zM12 18.4c-0.4 0-0.8 0.2-1.1 0.5s-0.5 0.7-0.5 1.1 0.2 0.8 0.5 1.1c0.6 0.6 1.6 0.6 2.2 0 0.6-0.6 0.6-1.6 0-2.2C12.8 18.6 12.4 18.4 12 18.4z"></path></g><g fill="black"><path fill="black" d="M23.8 18.7c-0.9 0-1.8-0.4-2.4-1l-7.1-7.1c-1.3-1.3-1.3-3.5 0-4.8L19.1 1c0.3-0.3 0.8-0.3 1.1 0L31 11.8c0.1 0.1 0.2 0.3 0.2 0.5s-0.1 0.4-0.2 0.5l-4.9 4.9C25.5 18.4 24.7 18.7 23.8 18.7zM19.7 2.6l-4.3 4.3c-0.7 0.7-0.7 2 0 2.7l7.1 7.1c0.7 0.7 2 0.7 2.7 0l4.3-4.3L19.7 2.6z"></path></g></g></svg></g></svg></g></svg></g></svg></g><g><path d="M245.816 0c68.262 0 123.6 55.338 123.6 123.6 0 68.262-55.338 123.6-123.6 123.6-58.918 0-108.208-41.225-120.599-96.403h1.977c12.353 54.105 60.773 94.476 118.622 94.476 67.198 0 121.673-54.475 121.672-121.673 0-67.198-54.475-121.673-121.672-121.673-57.849 0-106.268 40.371-118.622 94.476h-1.977c12.39-55.179 61.68-96.403 120.599-96.403z" fill="black" stroke="transparent"></path></g></svg></g><defs><mask></mask></defs></svg><rect width="395.52" height="247.2" fill="black" stroke="none" visibility="hidden"></rect></g></mask></svg><rect width="395.52" height="247.2" fill="black" stroke="none" visibility="hidden"></rect></g></mask></svg><rect width="395.52" height="247.2" fill="black" stroke="none" visibility="hidden"></rect></g></mask><linearGradient x1="0" x2="1" y1="0.578" y2="0.595" id="5f8ae7e5-ec26-4a08-9c73-a1bb9d8ca356"><stop stop-color="#6ee2f5" offset="0"></stop><stop stop-color="#6454f0" offset="1"></stop></linearGradient></svg><rect width="395.52" height="247.2" fill="none" stroke="none" visibility="hidden"></rect></g></svg></g></svg>